<svg id="Laag_1" data-name="Laag 1" xmlns="http://www.w3.org/2000/svg" viewBox="0 0 207.3 46.7"><title>FUGA_logo_white</title><path d="M2.5,46.7H0V13.3A13.23,13.23,0,0,1,13.3,0H46.8V2.5H13.3A10.76,10.76,0,0,0,2.5,13.3Z" style="fill:#f5f5f5"/><path d="M87.2,46.7H66.5A13.19,13.19,0,0,1,53.3,33.5V0h2.5V33.5A10.71,10.71,0,0,0,66.5,44.2H87.2A10.71,10.71,0,0,0,97.9,33.5V0h2.5V33.5A13.12,13.12,0,0,1,87.2,46.7Z" style="fill:#f5f5f5"/><path d="M153.7,46.7H120.2A13.19,13.19,0,0,1,107,33.5V13.3A13.27,13.27,0,0,1,120.2,0h33.5V2.5H120.2a10.71,10.71,0,0,0-10.7,10.7V33.4a10.71,10.71,0,0,0,10.7,10.7h33.5Z" style="fill:#f5f5f5"/><path d="M207.3,46.7h-2.5V13.2A10.71,10.71,0,0,0,194.1,2.5H173.4a10.71,10.71,0,0,0-10.7,10.7V46.7h-2.5V13.2A13.19,13.19,0,0,1,173.4,0h20.7a13.19,13.19,0,0,1,13.2,13.2Z" style="fill:#f5f5f5"/><path d="M81.2,10.4H72.6a6.91,6.91,0,0,1-6.9-6.9V0h2.5V3.4a4.44,4.44,0,0,0,4.4,4.4h8.6a4.44,4.44,0,0,0,4.4-4.4V0h2.5V3.4A6.94,6.94,0,0,1,81.2,10.4Z" style="fill:#f5f5f5"/><path d="M19.3,18.8h8.6a6.91,6.91,0,0,1,6.9,6.9v3.4H32.3V25.7a4.44,4.44,0,0,0-4.4-4.4H19.3a4.44,4.44,0,0,0-4.4,4.4v3.4H12.4V25.7A6.91,6.91,0,0,1,19.3,18.8Z" style="fill:#f5f5f5"/><path d="M138.2,18.8h8.6a6.91,6.91,0,0,1,6.9,6.9v3.4h-2.5V25.7a4.44,4.44,0,0,0-4.4-4.4h-8.6a4.44,4.44,0,0,0-4.4,4.4v3.4h-2.5V25.7A6.85,6.85,0,0,1,138.2,18.8Z" style="fill:#f5f5f5"/><path d="M179.4,36.4H188a6.91,6.91,0,0,1,6.9,6.9v3.4h-2.5V43.3a4.44,4.44,0,0,0-4.4-4.4h-8.6a4.44,4.44,0,0,0-4.4,4.4v3.4h-2.5V43.3A6.91,6.91,0,0,1,179.4,36.4Z" style="fill:#f5f5f5"/></svg>